HIERARCHY
ROOT Hips
{
    OFFSET 0.000000 0.000000 0.000000
    CHANNELS 6 Xposition Yposition Zposition Zrotation Xrotation Yrotation
    JOINT Spine
    {
        OFFSET -0.000000 7.236184 0.000000
        CHANNELS 3 Zrotation Xrotation Yrotation
        JOINT Spine1
        {
            OFFSET -0.000000 20.420147 0.000000
            CHANNELS 3 Zrotation Xrotation Yrotation
            JOINT Neck
            {
                OFFSET -0.000000 20.336288 1.848754
                CHANNELS 3 Zrotation Xrotation Yrotation
                JOINT Head
                {
                    OFFSET -0.000000 12.354461 -1.764923
                    CHANNELS 3 Zrotation Xrotation Yrotation
                    End Site
                    {
                        OFFSET -0.000000 22.061537 0.000000
                    }
                }
            }
            JOINT LeftShoulder
            {
                OFFSET 3.573296 18.396038 -0.314103
                CHANNELS 3 Zrotation Xrotation Yrotation
                JOINT LeftArm
                {
                    OFFSET 10.880760 0.000000 0.000000
                    CHANNELS 3 Zrotation Xrotation Yrotation
                    JOINT LeftForeArm
                    {
                        OFFSET 27.185530 0.000000 0.000000
                        CHANNELS 3 Zrotation Xrotation Yrotation
                        JOINT LeftHand
                        {
                            OFFSET 27.825975 0.000000 0.000000
                            CHANNELS 3 Zrotation Xrotation Yrotation
                            End Site
                            {
                                OFFSET 13.236923 0.000000 0.000000
                            }
                        }
                    }
                }
            }
            JOINT RightShoulder
            {
                OFFSET -3.474926 18.396038 -0.314103
                CHANNELS 3 Zrotation Xrotation Yrotation
                JOINT RightArm
                {
                    OFFSET -10.880760 0.000000 0.000000
                    CHANNELS 3 Zrotation Xrotation Yrotation
                    JOINT RightForeArm
                    {
                        OFFSET -27.185530 0.000000 0.000000
                        CHANNELS 3 Zrotation Xrotation Yrotation
                        JOINT RightHand
                        {
                            OFFSET -27.825975 0.000000 0.000000
                            CHANNELS 3 Zrotation Xrotation Yrotation
                            End Site
                            {
                                OFFSET -13.236923 0.000000 0.000000
                            }
                        }
                    }
                }
            }
        }
    }
    JOINT LeftUpLeg
    {
        OFFSET 8.824615 0.000000 0.000000
        CHANNELS 3 Zrotation Xrotation Yrotation
        JOINT LeftLeg
        {
            OFFSET -0.000000 -35.111282 0.000000
            CHANNELS 3 Zrotation Xrotation Yrotation
            JOINT LeftFoot
            {
                OFFSET -0.000000 -42.324711 0.000000
                CHANNELS 3 Zrotation Xrotation Yrotation
                JOINT LeftToeBase
                {
                    OFFSET -0.000000 -5.735999 13.236923
                    CHANNELS 3 Zrotation Xrotation Yrotation
                    End Site
                    {
                        OFFSET -0.000000 0.000000 3.529846
                    }
                }
            }
        }
    }
    JOINT RightUpLeg
    {
        OFFSET -8.824615 0.000000 0.000000
        CHANNELS 3 Zrotation Xrotation Yrotation
        JOINT RightLeg
        {
            OFFSET -0.000000 -35.111282 0.000000
            CHANNELS 3 Zrotation Xrotation Yrotation
            JOINT RightFoot
            {
                OFFSET -0.000000 -42.324711 0.000000
                CHANNELS 3 Zrotation Xrotation Yrotation
                JOINT RightToeBase
                {
                    OFFSET -0.000000 -5.735999 13.236923
                    CHANNELS 3 Zrotation Xrotation Yrotation
                    End Site
                    {
                        OFFSET -0.000000 0.000000 3.529846
                    }
                }
            }
        }
    }
}
MOTION
Frames:    11
Frame Time:    0.008333
-22.647377    78.439941    106.643021    -0.981275    -4.580754    -176.863266    -1.344049    -5.444647    0.394414    -2.277217    6.664127    0.590895    6.497733    7.303784    4.302577    -10.178464    -21.415264    0.639337    0.449119    18.860340    1.282560    -57.658512    34.371933    -32.045876    16.394703    -4.834389    -14.620977    47.873478    -4.554179    -4.136037    9.801437    19.116472    -11.090471    51.379875    37.364246    28.793293    -16.086626    -11.606492    33.900707    -38.008430    -7.183890    1.319970    2.185570    -19.086533    0.213634    -3.210407    35.645500    2.123757    -8.039695    -17.415331    -13.553974    0.731932    -2.622788    -0.815252    -5.297946    -24.172928    -2.964466    17.830313    49.488129    -12.223142    1.745779    -6.601665    -15.730513    -0.311268    -7.478754    0.340387    
-22.661898    78.391632    106.626152    -0.976114    -4.544384    -177.005371    -1.339120    -5.453701    0.416229    -2.253937    6.718554    0.612386    6.454668    7.319034    4.294451    -10.645909    -21.492237    0.476386    0.424309    18.872272    1.318362    -57.821163    33.811008    -31.721092    16.061869    -4.810001    -14.161331    47.437130    -4.599374    -4.088668    9.786654    19.103325    -11.095681    51.540150    36.918468    28.601290    -16.173838    -11.612163    33.648178    -37.555996    -7.244825    1.465194    2.186668    -19.150715    0.345006    -3.153026    35.887081    2.204520    -7.945389    -17.471323    -13.599288    0.779465    -2.531361    -0.868045    -5.371475    -24.154697    -3.024297    17.839582    49.544472    -12.188008    1.685139    -6.726318    -15.704001    -0.299069    -7.543890    0.327080    
-22.665060    78.356331    106.609604    -0.948953    -4.515691    -177.146759    -1.325675    -5.461725    0.431730    -2.207242    6.756845    0.625297    6.406355    7.334771    4.294590    -11.121571    -21.566402    0.319364    0.415523    18.865795    1.363439    -58.035290    33.079178    -31.293982    15.755302    -4.795264    -13.708898    46.968201    -4.643676    -4.035382    9.751773    19.068188    -11.108658    51.738167    36.268501    28.306923    -16.258856    -11.602143    33.416496    -37.081429    -7.289695    1.621225    2.211346    -19.199728    0.474222    -3.084442    36.083225    2.274503    -7.824587    -17.503323    -13.629689    0.821912    -2.440795    -0.915160    -5.470382    -24.144802    -3.113380    17.834747    49.609730    -12.120554    1.644718    -6.855595    -15.662045    -0.294637    -7.598758    0.322262    
-22.656462    78.336563    106.594101    -0.902402    -4.497252    -177.282059    -1.304670    -5.469063    0.440588    -2.140912    6.776038    0.629801    6.354900    7.350606    4.302613    -11.582287    -21.633656    0.175643    0.422828    18.840092    1.416080    -58.287308    32.202610    -30.785229    15.496588    -4.790114    -13.288935    46.482265    -4.681760    -3.974971    9.698248    19.012690    -11.128727    51.963905    35.435966    27.926634    -16.336138    -11.584811    33.218262    -36.610569    -7.321949    1.773186    2.258710    -19.228775    0.593048    -3.012605    36.218517    2.335391    -7.686559    -17.508944    -13.643632    0.857412    -2.358160    -0.954539    -5.592002    -24.143299    -3.223655    17.812729    49.675762    -12.021878    1.622306    -6.982904    -15.618462    -0.299003    -7.644378    0.327060    
-22.636858    78.331688    106.579437    -0.839757    -4.489131    -177.412949    -1.277123    -5.476893    0.444338    -2.058490    6.777944    0.627404    6.299691    7.365689    4.317221    -12.026529    -21.693432    0.044606    0.444892    18.795017    1.476054    -58.567284    31.185980    -30.205257    15.286592    -4.791282    -12.904410    45.969395    -4.709672    -3.905891    9.627431    18.937790    -11.155021    52.211311    34.429535    27.472946    -16.405283    -11.567207    33.053204    -36.148163    -7.346648    1.913932    2.326704    -19.236996    0.700873    -2.941923    36.292480    2.391788    -7.541232    -17.490288    -13.642266    0.887812    -2.284950    -0.988247    -5.736479    -24.148516    -3.349598    17.770935    49.737103    -11.892502    1.610900    -7.107834    -15.585777    -0.310629    -7.686089    0.339799    
-22.606552    78.341278    106.565323    -0.763532    -4.491005    -177.541534    -1.243716    -5.485699    0.444095    -1.962545    6.763513    0.619725    6.240234    7.380833    4.337404    -12.456264    -21.746901    -0.075439    0.481479    18.729671    1.543447    -58.864838    30.025667    -29.560572    15.123206    -4.794787    -12.556990    45.413502    -4.723286    -3.826996    9.538889    18.843763    -11.186293    52.475231    33.248409    26.954224    -16.467785    -11.553869    32.920807    -35.695110    -7.366762    2.039141    2.413846    -19.223240    0.798394    -2.874755    36.305157    2.444088    -7.397864    -17.448500    -13.624619    0.914580    -2.223150    -1.017925    -5.905784    -24.158386    -3.488678    17.704676    49.788956    -11.730483    1.603991    -7.230245    -15.573808    -0.327131    -7.727507    0.357874    
-22.565962    78.364883    106.551682    -0.677078    -4.502915    -177.668167    -1.205587    -5.495994    0.441031    -1.856543    6.733771    0.608121    6.175477    7.395522    4.361750    -12.866832    -21.793884    -0.184206    0.532692    18.643137    1.617927    -59.164772    28.730276    -28.864748    15.005409    -4.795580    -12.251274    44.800987    -4.717839    -3.739239    9.433090    18.731039    -11.221094    52.746235    31.902668    26.383583    -16.525555    -11.547176    32.822590    -35.256905    -7.382756    2.144499    2.517557    -19.187119    0.885266    -2.813432    36.256714    2.489496    -7.251620    -17.387417    -13.584530    0.938340    -2.173289    -1.044271    -6.101081    -24.171116    -3.638996    17.608271    49.826653    -11.534436    1.596107    -7.348081    -15.589422    -0.346433    -7.770473    0.379015    
-22.514431    78.402481    106.538162    -0.581466    -4.524632    -177.795303    -1.162935    -5.507915    0.436048    -1.741177    6.688845    0.593817    6.102816    7.410758    4.389196    -13.261574    -21.836380    -0.283737    0.599745    18.532284    1.700250    -59.454525    27.285536    -28.118662    14.928123    -4.787668    -11.984947    44.108002    -4.687882    -3.642019    9.307203    18.597961    -11.258388    53.019859    30.375261    25.762735    -16.582386    -11.546575    32.759274    -34.831139    -7.392820    2.229225    2.638209    -19.126997    0.963550    -2.758302    36.146496    2.524796    -7.119780    -17.303144    -13.525074    0.957439    -2.136597    -1.065453    -6.326850    -24.184399    -3.802332    17.472773    49.845554    -11.298620    1.583441    -7.460147    -15.636278    -0.367861    -7.816176    0.402487    
-22.453806    78.452110    106.525146    -0.482598    -4.554660    -177.918213    -1.118265    -5.520567    0.430356    -1.622872    6.630916    0.578408    6.023743    7.426611    4.417255    -13.623397    -21.874001    -0.371059    0.680897    18.399050    1.786697    -59.706520    25.757454    -27.360752    14.890541    -4.765933    -11.769375    43.349785    -4.630411    -3.540641    9.165401    18.449722    -11.295509    53.276550    28.730791    25.124275    -16.639723    -11.550418    32.736538    -34.438385    -7.393254    2.288896    2.770061    -19.044859    1.030808    -2.712206    35.980492    2.545513    -6.999853    -17.202793    -13.444417    0.971776    -2.110718    -1.081355    -6.575686    -24.194771    -3.972332    17.296097    49.839394    -11.029839    1.564795    -7.558297    -15.711470    -0.389595    -7.863854    0.426298    
-22.383137    78.513519    106.512360    -0.381055    -4.593232    -178.039429    -1.072051    -5.534513    0.424716    -1.501131    6.559876    0.562726    5.936615    7.443992    4.445136    -13.961230    -21.908291    -0.449763    0.777821    18.240208    1.877546    -59.909336    24.131376    -26.586302    14.884312    -4.724550    -11.597615    42.507915    -4.541038    -3.434239    9.004378    18.283817    -11.331866    53.512737    26.948296    24.463812    -16.702486    -11.554876    32.756733    -34.073124    -7.378641    2.324211    2.913626    -18.941488    1.089476    -2.674106    35.761196    2.551347    -6.893196    -17.086214    -13.343205    0.983123    -2.092347    -1.093944    -6.853164    -24.200294    -4.151656    17.071003    49.802898    -10.723170    1.540025    -7.640191    -15.810610    -0.411211    -7.914672    0.449987    
-22.304136    78.583946    106.499840    -0.280276    -4.637144    -178.155319    -1.025112    -5.547770    0.420040    -1.381249    6.478240    0.548012    5.843748    7.464077    4.470856    -14.266448    -21.940235    -0.519309    0.888988    18.059469    1.968707    -60.043911    22.467150    -25.823277    14.903064    -4.660456    -11.472341    41.605049    -4.420110    -3.327651    8.828319    18.104784    -11.365021    53.713924    25.087894    23.804308    -16.773022    -11.556253    32.822479    -33.747326    -7.344476    2.334496    3.064987    -18.819872    1.140238    -2.644293    35.499226    2.543434    -6.805981    -16.957603    -13.228862    0.992623    -2.078810    -1.104486    -7.150467    -24.196003    -4.333911    16.800699    49.730614    -10.387547    1.510912    -7.699200    -15.923553    -0.430239    -7.968318    0.470849    
